<?xml version="1.0" encoding="UTF-8" standalone="no"?>
<svg
   width="2753.0789"
   height="511.99994"
   viewBox="0 0 2753.0788 511.99994"
   version="1.1"
   id="svg10"
   sodipodi:docname="logo_512.svg"
   inkscape:version="1.3.2 (091e20e, 2023-11-25, custom)"
   xmlns:inkscape="http://www.inkscape.org/namespaces/inkscape"
   xmlns:sodipodi="http://sodipodi.sourceforge.net/DTD/sodipodi-0.dtd"
   xmlns="http://www.w3.org/2000/svg"
   xmlns:svg="http://www.w3.org/2000/svg">
  <defs
     id="defs10" />
  <sodipodi:namedview
     id="namedview10"
     pagecolor="#ffffff"
     bordercolor="#000000"
     borderopacity="0.25"
     inkscape:showpageshadow="2"
     inkscape:pageopacity="0.0"
     inkscape:pagecheckerboard="0"
     inkscape:deskcolor="#d1d1d1"
     inkscape:zoom="1.044997"
     inkscape:cx="1368.9035"
     inkscape:cy="307.6564"
     inkscape:window-width="3440"
     inkscape:window-height="1369"
     inkscape:window-x="-8"
     inkscape:window-y="-8"
     inkscape:window-maximized="1"
     inkscape:current-layer="svg10" />
  <style
     type="text/css"
     id="style1">
        .st0 {
            fill: #005468;
        }

        .st1 {
            fill: #EB5C2E;
        }
    </style>
  <g
     id="g12"
     transform="matrix(13.834957,0,0,13.834957,-13.834246,-0.03458739)">
    <g
       id="g11">
      <path
         class="st0"
         d="m 193.76,20.79 c 0,2.31 0,4.61 0,6.92 0,1.86 -1.13,3.17 -3.07,3.33 -1.03,0.09 -1.9,-0.4 -2.56,-1.2 -0.5,-0.61 -0.69,-1.32 -0.68,-2.11 0.01,-4.61 0,-9.23 0.01,-13.84 0,-0.37 -0.04,-0.73 -0.26,-1.05 -0.33,-0.48 -0.81,-0.63 -1.36,-0.66 -0.76,-0.03 -1.52,0.06 -2.29,-0.08 -1.08,-0.21 -2.28,-1.51 -2.35,-2.61 -0.11,-1.69 0.68,-2.87 2.28,-3.41 0.29,-0.1 0.58,-0.16 0.89,-0.16 4.11,0 8.22,-0.01 12.32,0.01 1.18,0.01 2.18,0.45 2.83,1.48 1.13,1.78 0.16,4.31 -2.05,4.71 -0.72,0.13 -1.43,0.05 -2.15,0.07 -0.97,0.02 -1.57,0.59 -1.57,1.56 0,2.34 0.01,4.69 0.01,7.04 z"
         id="path1" />
      <path
         class="st0"
         d="m 177.97,18.48 c 0,3.13 0.02,6.26 -0.01,9.39 -0.02,1.92 -1.41,3.17 -3.25,3.18 -1.6,0.01 -3.02,-1.47 -3.01,-2.96 0,-1.46 0.02,-2.91 -0.01,-4.37 -0.01,-0.95 -0.2,-1.84 -0.93,-2.56 -1.4,-1.38 -4.04,-1.18 -5.02,0.85 -0.21,0.44 -0.33,0.88 -0.32,1.37 0.02,1.5 0.04,3 0,4.5 -0.06,1.96 -1.39,3.06 -3.09,3.16 -1.52,0.09 -3.21,-1.23 -3.21,-3.25 0.01,-6.25 0.02,-12.49 -0.01,-18.74 -0.01,-1.32 0.99,-2.58 2.09,-2.95 1.9,-0.63 4.11,0.53 4.21,2.82 0.03,0.66 0.01,1.32 0.01,1.98 -0.01,1.12 0.52,1.96 1.41,2.57 2.07,1.44 4.73,-0.22 4.81,-2.35 0.03,-0.89 -0.06,-1.8 0.09,-2.68 0.29,-1.71 2.03,-2.76 3.44,-2.49 0.36,0.07 0.72,0.1 1.05,0.27 1.15,0.61 1.73,1.56 1.74,2.84 0.02,3.15 0.01,6.29 0.01,9.42 z"
         id="path2" />
      <path
         class="st0"
         d="m 155.92,18.49 c 0,3.1 0.01,6.2 -0.01,9.3 0,0.91 -0.25,1.75 -0.96,2.4 -0.57,0.52 -1.22,0.86 -2.01,0.86 -2.36,0.01 -4.73,0 -7.09,0 -1.77,0 -3.55,0.04 -5.32,0 -1.36,-0.03 -2.26,-0.78 -2.8,-2 -0.17,-0.39 -0.19,-0.79 -0.19,-1.2 0,-3.12 0.03,-6.23 -0.01,-9.35 -0.02,-1.73 1.41,-3.18 3.17,-3.17 2.42,0.01 4.85,0.01 7.27,0 1.11,0 1.77,-0.86 1.58,-1.92 -0.12,-0.65 -0.79,-1.2 -1.66,-1.2 -2.38,0.01 -4.76,-0.01 -7.14,0.01 -1.62,0.01 -2.73,-1.08 -3.12,-2.26 -0.63,-1.95 0.99,-4.02 3.09,-4.02 4.02,0.02 8.04,-0.02 12.06,0.02 1.79,0.02 3.11,1.31 3.12,3.22 0.04,3.11 0.02,6.21 0.02,9.31 z m -9.45,6.31 c 0.5,0 1,-0.01 1.5,0 0.75,0.01 1.63,-0.49 1.64,-1.57 0,-0.91 -0.49,-1.55 -1.53,-1.61 -1.07,-0.06 -2.15,-0.03 -3.23,0 -0.81,0.02 -1.63,0.94 -1.51,1.69 0.15,0.91 0.98,1.55 1.68,1.49 0.48,-0.03 0.97,0 1.45,0 z"
         id="path3" />
      <path
         class="st0"
         d="m 115.49,24.87 c 0,-1.03 0.02,-2.06 -0.01,-3.09 -0.04,-1.34 1.06,-2.6 2.09,-2.9 0.18,-0.05 0.36,-0.11 0.54,-0.18 0.66,-0.28 0.97,-0.87 0.91,-1.73 -0.04,-0.55 -0.54,-1.09 -1.16,-1.25 -1.34,-0.35 -2.37,-1.55 -2.38,-2.97 -0.01,-1.34 -0.01,-2.68 0,-4.01 0,-1 1.02,-2.29 2.13,-2.6 1.61,-0.44 3.2,0.1 3.93,1.78 0.17,0.39 0.21,0.82 0.22,1.23 0.02,0.73 -0.02,1.47 0.01,2.2 0.05,1.29 0.72,2.18 1.86,2.75 1.77,0.89 4.34,-0.38 4.39,-2.82 0.02,-0.88 -0.06,-1.77 0.04,-2.64 0.2,-1.7 1.8,-2.64 2.89,-2.65 1.45,-0.01 2.5,0.57 3.11,1.87 0.19,0.41 0.26,0.86 0.26,1.32 0,1.16 0,2.32 0,3.48 -0.01,1.47 -0.7,2.5 -2.08,3.07 -0.69,0.28 -1.11,0.88 -1.06,1.62 0.05,0.67 0.44,1.12 1.07,1.37 1.35,0.54 2.04,1.56 2.06,3.06 0.03,2.03 0.01,4.06 0.01,6.08 0,1.88 -1.39,3.01 -2.79,3.19 -2.07,0.28 -3.58,-1.6 -3.53,-3.13 0.05,-1.54 0,-3.09 0.02,-4.63 0.02,-1.48 -0.87,-2.77 -2.34,-3.15 -1.98,-0.5 -3.84,0.92 -3.9,2.84 -0.05,1.64 0,3.29 -0.02,4.94 -0.02,1.2 -0.52,2.16 -1.59,2.75 -2.06,1.13 -4.15,-0.11 -4.69,-2.17 -0.02,-0.07 0,-0.15 0,-0.22 0.01,-1.12 0.01,-2.27 0.01,-3.41 z"
         id="path4" />
      <path
         class="st0"
         d="m 68.69,18.56 c 0,3.07 0,6.14 0,9.21 0,2 -1.33,3.33 -3.34,3.33 -3.84,0 -7.69,-0.02 -11.53,0.01 -1.94,0.02 -3.15,-1.2 -3.45,-2.9 -0.22,-1.24 0.93,-2.86 2.28,-3.24 0.36,-0.1 0.72,-0.14 1.09,-0.14 2.34,0 4.67,0 7.01,0 0.76,0 1.41,-0.47 1.58,-1.12 0.18,-0.69 -0.08,-1.42 -0.66,-1.78 -0.32,-0.2 -0.67,-0.28 -1.04,-0.27 -1.45,0 -2.9,0 -4.35,0 -1.53,0 -2.59,-0.71 -3.15,-2.13 -0.68,-1.72 0.54,-3.86 2.48,-4.07 1.63,-0.18 3.28,-0.04 4.92,-0.06 0.29,0 0.58,-0.01 0.86,-0.13 0.76,-0.32 1.12,-1.02 0.95,-1.87 -0.12,-0.62 -0.79,-1.15 -1.49,-1.17 -0.72,-0.02 -1.45,0 -2.17,0 -1.88,-0.01 -3.75,0.02 -5.63,-0.04 -1.08,-0.03 -1.88,-0.66 -2.39,-1.58 -1.19,-2.16 0.4,-4.63 2.77,-4.64 4.02,-0.01 8.04,-0.02 12.06,0.01 1.94,0.01 3.19,1.41 3.2,3.24 0.01,3.11 0,6.23 0,9.34 z"
         id="path5" />
      <path
         class="st0"
         d="m 90.21,18.58 c 0,3.12 -0.01,6.23 0,9.35 0.01,2.09 -1.96,3.53 -3.89,3.04 -1.27,-0.32 -2.4,-1.59 -2.39,-3.2 0.02,-4.58 0.01,-9.17 0,-13.75 0,-1.11 -0.72,-1.79 -1.83,-1.74 -0.33,0.01 -0.59,0.15 -0.82,0.38 -0.87,0.86 -1.73,1.72 -2.6,2.59 -0.33,0.33 -0.49,0.7 -0.49,1.18 0.01,3.73 0.01,7.46 0,11.2 0,1.77 -0.81,2.97 -2.56,3.39 -1.36,0.33 -2.76,-0.38 -3.45,-1.81 -0.22,-0.47 -0.29,-0.96 -0.29,-1.48 0.01,-4.25 0.01,-8.49 0,-12.74 0,-0.67 -0.06,-1.33 0.31,-1.95 0.18,-0.3 0.38,-0.59 0.63,-0.84 1.76,-1.74 3.52,-3.49 5.26,-5.24 0.65,-0.65 1.43,-0.97 2.33,-0.97 2.19,-0.01 4.37,-0.02 6.56,0 1.47,0.01 2.49,0.76 2.98,1.94 0.16,0.37 0.22,0.78 0.22,1.19 0.03,3.14 0.03,6.3 0.03,9.46 z"
         id="path6" />
      <path
         class="st0"
         d="m 93.44,18.49 c 0,-3.04 0.01,-6.08 0,-9.12 0,-0.97 0.26,-1.82 0.96,-2.5 0.63,-0.61 1.4,-0.89 2.28,-0.89 4.11,0 8.22,-0.02 12.32,0.01 1.94,0.01 3.27,1.27 3.28,3.29 0.02,3.01 0,6.02 0.01,9.04 0.01,2.1 -1.51,3.3 -3.15,3.34 -2.56,0.06 -5.11,0.01 -7.67,0.03 -0.9,0.01 -1.46,0.41 -1.73,1.26 -0.24,0.77 0.55,1.86 1.36,1.86 2.48,0 4.97,-0.01 7.45,0.01 0.94,0.01 1.78,0.28 2.44,0.99 1.51,1.62 0.88,4.41 -1.33,5.1 -0.34,0.11 -0.67,0.16 -1.03,0.16 -4.11,0 -8.22,0.02 -12.32,-0.02 -0.95,-0.01 -1.71,-0.54 -2.29,-1.29 -0.49,-0.64 -0.6,-1.37 -0.6,-2.14 0.02,-3.05 0.02,-6.09 0.02,-9.13 z m 9.57,-6.26 c -0.67,0 -1.22,-0.01 -1.77,0 -0.79,0.02 -1.43,0.66 -1.54,1.48 -0.1,0.7 0.55,1.56 1.3,1.64 1.23,0.12 2.48,0.11 3.72,0 0.69,-0.06 1.23,-0.73 1.27,-1.44 0.03,-0.66 -0.41,-1.36 -1.04,-1.56 -0.7,-0.22 -1.39,-0.03 -1.94,-0.12 z"
         id="path7" />
    </g>
    <g
       id="g10">
      <path
         class="st1"
         d="m 40.58,18.54 c 0,5.03 0,10.05 0,15.08 0,1.7 -0.94,2.96 -2.47,3.3 -0.17,0.04 -0.35,0.06 -0.53,0.06 -3.55,0 -7.1,0.05 -10.64,-0.03 -1.75,-0.04 -2.78,-1.55 -2.91,-2.76 -0.19,-1.8 1.2,-3.45 3.24,-3.46 1.02,0 2.04,-0.03 3.06,0.01 1.37,0.04 3.05,-1.06 3.05,-3.04 0.01,-6.1 0,-12.2 0.01,-18.3 0,-1.51 -1.11,-3.06 -3.15,-3.12 -1.05,-0.03 -2.1,0 -3.15,-0.01 -1.38,-0.01 -2.79,-1.03 -3.04,-2.62 -0.24,-1.52 0.66,-3 2.11,-3.46 0.33,-0.11 0.68,-0.16 1.03,-0.16 3.36,0 6.71,0.04 10.07,-0.01 1.67,-0.02 3.33,1.14 3.33,3.32 -0.01,5.06 -0.01,10.13 -0.01,15.2 z"
         id="path8" />
      <path
         class="st1"
         d="m 20.8,24.53 c -1.24,0 -2.48,-0.04 -3.72,0.01 -1.45,0.06 -2.68,-1.42 -2.64,-2.61 0.07,-2.26 0.05,-4.52 0.01,-6.78 -0.03,-1.28 1.03,-2.67 2.64,-2.68 2.48,-0.02 4.96,-0.02 7.44,0 1.28,0.01 2.57,0.89 2.61,2.61 0.04,2.33 0.05,4.67 -0.01,7 -0.04,1.52 -1.35,2.46 -2.56,2.45 -1.26,0 -2.52,0 -3.77,0 z"
         id="path9" />
      <path
         class="st1"
         d="m 1.01,18.49 c 0,-5.03 0,-10.05 0,-15.08 C 1.01,2.8 1.07,2.21 1.38,1.67 1.98,0.62 2.88,0.02 4.11,0.01 7.57,0 11.03,0 14.49,0.01 c 1.74,0 3.16,1.47 3.08,3.19 -0.1,2.03 -1.67,3.07 -3.16,3.06 -0.98,-0.01 -1.95,0 -2.93,0 -1.96,0.01 -3.27,1.32 -3.27,3.26 0,6 0.01,11.99 -0.01,17.99 0,1.46 0.67,2.45 1.98,3.04 0.32,0.14 0.68,0.17 1.03,0.17 1.03,0 2.07,-0.01 3.1,0 1.11,0.02 2.07,0.41 2.68,1.36 1.23,1.88 0.36,4.12 -1.77,4.79 -0.34,0.11 -0.69,0.12 -1.04,0.12 -3.3,0 -6.59,-0.04 -9.89,0.02 C 2.44,37.03 0.99,35.55 1,33.7 1.03,28.63 1.01,23.56 1.01,18.49 Z"
         id="path10" />
    </g>
  </g>
</svg>
